<?xml version="1.0" encoding="UTF-8" standalone="no"?><!DOCTYPE svg PUBLIC "-//W3C//DTD SVG 1.1//EN" "http://www.w3.org/Graphics/SVG/1.1/DTD/svg11.dtd"><svg width="100%" height="100%" viewBox="0 0 80 15" version="1.1" xmlns="http://www.w3.org/2000/svg" xmlns:xlink="http://www.w3.org/1999/xlink" xml:space="preserve" xmlns:serif="http://www.serif.com/" style="fill-rule:evenodd;clip-rule:evenodd;stroke-linecap:round;stroke-linejoin:round;stroke-miterlimit:1.5;"><path d="M80,0.867c0,-0.479 -0.388,-0.867 -0.867,-0.867l-78.266,0c-0.479,0 -0.867,0.388 -0.867,0.867l0,13.266c0,0.479 0.388,0.867 0.867,0.867l78.266,0c0.479,0 0.867,-0.388 0.867,-0.867l0,-13.266Z" style="fill:#666;"/><rect x="1.527" y="1.534" width="24.018" height="12" style="fill:#fff;stroke:#fff;stroke-width:1px;"/><rect x="25.546" y="1.534" width="53.052" height="12" style="fill:#898e79;stroke:#fff;stroke-width:1px;"/><path id="path1599" d="M4.046,3.05l2.639,8.907l0.11,0l1.649,-5.519l1.65,5.519l0.11,0l1.978,-6.674c0.378,-1.275 0.19,-1.134 1.317,-1.134l0.93,0l-1.838,3.19l0.738,0c0.477,0 0.979,0.172 1.243,0.516c0.037,0.048 0.07,0.1 0.101,0.155c0.007,0.012 0.014,0.025 0.02,0.038c0.029,0.055 0.057,0.112 0.08,0.173c0.093,0.243 0.139,0.535 0.139,0.877c0,0.484 -0.106,0.898 -0.319,1.243c-0.057,0.093 -0.119,0.173 -0.184,0.241c-0.041,0.044 -0.084,0.082 -0.128,0.115c-0.004,0.003 -0.008,0.005 -0.012,0.008c-0.045,0.033 -0.091,0.061 -0.139,0.083c-0.043,0.02 -0.089,0.035 -0.135,0.046c-0.012,0.003 -0.024,0.005 -0.036,0.008c-0.048,0.009 -0.096,0.015 -0.146,0.015c-0.002,0 -0.004,-0 -0.007,-0c-0.002,-0 -0.004,-0.001 -0.006,-0.001c-0.001,0 -0.002,-0 -0.003,-0c-0.003,-0 -0.005,-0.001 -0.008,-0.001c-0.066,-0.001 -0.13,-0.006 -0.192,-0.017c-0.001,-0 -0.001,-0 -0.001,-0c-0.017,-0.003 -0.033,-0.01 -0.05,-0.014c-0.003,-0 -0.007,-0.001 -0.01,-0.002c-0.004,-0.001 -0.008,-0.003 -0.012,-0.004c-0.043,-0.01 -0.085,-0.019 -0.125,-0.035c-0.063,-0.024 -0.124,-0.054 -0.183,-0.09c-0.058,-0.036 -0.114,-0.078 -0.168,-0.127c-0.114,-0.124 -0.201,-0.266 -0.292,-0.404l-1.123,-0c0.076,0.226 0.171,0.431 0.28,0.619l-0.004,0.006c0.012,0.021 0.028,0.041 0.041,0.062c0.077,0.126 0.161,0.245 0.254,0.353c0.083,0.096 0.172,0.184 0.267,0.266c0.048,0.041 0.096,0.079 0.146,0.114l0,0.001c0.05,0.035 0.1,0.068 0.151,0.098c0.032,0.019 0.065,0.035 0.097,0.052c0.005,0.002 0.009,0.005 0.013,0.007c0.016,0.009 0.032,0.018 0.048,0.025c0.001,0.001 0.001,0.001 0.002,0.001c0.053,0.025 0.107,0.048 0.162,0.068c0.001,0 0.001,0.001 0.002,0.001l0.001,0c0.054,0.02 0.11,0.038 0.167,0.053c0.001,-0 0.002,0 0.003,0.001l0.001,-0c0.056,0.015 0.114,0.027 0.172,0.037c0.001,0 0.003,0 0.004,0.001c0.053,0.008 0.106,0.015 0.159,0.02c0.002,-0 0.003,0 0.004,0c0.002,0.001 0.004,0.001 0.006,0.001c0.003,0.001 0.006,0.001 0.009,0.001l0.001,0c0.001,0 0.003,0.001 0.004,0.001l0.001,-0c0.032,0.003 0.066,0.002 0.099,0.004c0.007,-0 0.013,0.001 0.02,0.001c0.005,-0 0.009,0 0.013,0c0.017,0.001 0.034,0.002 0.051,0.002c0.002,0 0.004,0 0.006,0c0.049,0 0.096,-0.004 0.144,-0.007l0,-0.003c0.052,-0.004 0.105,-0.004 0.156,-0.011c0.007,-0.001 0.014,-0.002 0.021,-0.003c0.094,-0.013 0.186,-0.033 0.276,-0.058c0.416,-0.118 0.773,-0.363 1.069,-0.742c0.429,-0.55 0.643,-1.228 0.643,-2.035c0,-0.652 -0.147,-1.22 -0.44,-1.704c-0.223,-0.367 -0.526,-0.648 -0.909,-0.842c-0.012,-0.006 -0.025,-0.011 -0.037,-0.017c-0.049,-0.024 -0.099,-0.048 -0.151,-0.069c-0.065,-0.026 -0.131,-0.051 -0.2,-0.073c0.643,-1.114 1.298,-2.223 1.932,-3.343l-3.473,0c-1.004,0 -1.205,0.171 -1.554,1.356l-1.196,4.065l-1.594,-5.421l-1.154,-0l0.263,0.886c0.22,0.738 0.201,1.1 -0.005,1.798l-0.809,2.737l-1.594,-5.421l-1.155,-0Z" style="fill:#005a9c;fill-rule:nonzero;"/><path id="path8" d="M20.597,3l0.094,0.569c0.087,0.53 -0.002,0.75 -0.238,1.202l-0.331,0.633c0,-0 -0.254,-0.538 -0.676,-0.835c-0.356,-0.25 -0.588,-0.305 -0.95,-0.23c-0.466,0.096 -0.993,0.652 -1.224,1.338c-0.275,0.821 -0.278,1.219 -0.288,1.584c-0.015,0.585 0.077,0.931 0.077,0.931c-0,-0 -0.402,-0.744 -0.398,-1.833c0.002,-0.778 0.125,-1.483 0.484,-2.179c0.317,-0.611 0.787,-0.978 1.205,-1.022c0.431,-0.044 0.773,0.164 1.036,0.389c0.277,0.237 0.557,0.753 0.557,0.753l0.652,-1.3Z" style="fill-rule:nonzero;"/><path id="path10" d="M20.679,9.434c-0,0 -0.293,0.523 -0.475,0.725c-0.183,0.201 -0.509,0.556 -0.912,0.734c-0.403,0.177 -0.614,0.211 -1.012,0.173c-0.398,-0.038 -0.768,-0.269 -0.897,-0.365c-0.13,-0.096 -0.461,-0.379 -0.648,-0.643c-0.187,-0.264 -0.48,-0.791 -0.48,-0.791c0,-0 0.163,0.529 0.265,0.753c0.059,0.129 0.24,0.524 0.496,0.868c0.239,0.321 0.703,0.874 1.408,0.998c0.706,0.125 1.19,-0.192 1.31,-0.269c0.12,-0.076 0.397,-0.257 0.557,-0.428c0.167,-0.179 0.255,-0.307 0.366,-0.532c0.081,-0.164 0.151,-0.548 0.106,-0.784l-0.084,-0.439Z" style="fill-rule:nonzero;"/><text x="29.721px" y="10.004px" style="font-family:'Arial-BoldMT', 'Arial', sans-serif;font-weight:700;font-size:7px;fill:#fff;">CSS</text></svg>