<?xml version="1.0" encoding="UTF-8" standalone="no"?><!DOCTYPE svg PUBLIC "-//W3C//DTD SVG 1.1//EN" "http://www.w3.org/Graphics/SVG/1.1/DTD/svg11.dtd"><svg width="100%" height="100%" viewBox="0 0 60 12" version="1.1" xmlns="http://www.w3.org/2000/svg" xmlns:xlink="http://www.w3.org/1999/xlink" xml:space="preserve" xmlns:serif="http://www.serif.com/" style="fill-rule:evenodd;clip-rule:evenodd;stroke-linecap:round;stroke-linejoin:round;stroke-miterlimit:1.5;"><path d="M60,0.65c0,-0.359 -0.291,-0.65 -0.65,-0.65l-58.7,0c-0.359,0 -0.65,0.291 -0.65,0.65l0,9.95c0,0.359 0.291,0.65 0.65,0.65l58.7,-0c0.359,-0 0.65,-0.291 0.65,-0.65l0,-9.95Z" style="fill:#666;"/><rect x="19.178" y="1.151" width="39.77" height="9" style="fill:#898e79;stroke:#fff;stroke-width:0.75px;"/><text x="22.141px" y="7.5px" style="font-family:'Arial-BoldMT', 'Arial', sans-serif;font-weight:700;font-size:5.25px;fill:#fff;">Donate</text><rect x="1.146" y="1.151" width="18.032" height="9" style="fill:#5ccc2b;stroke:#fff;stroke-width:0.75px;"/><path d="M11.457,5.652c0.93,0 1.685,-0.755 1.685,-1.685c0,-0.93 -0.755,-1.685 -1.685,-1.685c-0.93,0 -1.685,0.755 -1.685,1.685c0,0.93 0.755,1.685 1.685,1.685m1.837,1.887c-0.131,-0.134 -0.297,-0.202 -0.489,-0.202l-2.359,0l-0.701,-0.246l0.112,-0.317l0.589,0.226l0.944,0c0.118,0 0.212,-0.047 0.29,-0.125c0.077,-0.077 0.114,-0.171 0.114,-0.276c0,-0.182 -0.087,-0.307 -0.263,-0.377l-2.45,-0.907l-0.657,0l0,3.033l2.359,0.674l2.706,-1.011c0.004,-0.178 -0.064,-0.337 -0.195,-0.472m-5.544,-2.224l-1.353,0l-0,3.707l1.353,0l0,-3.707Z" style="fill:#fff;fill-rule:nonzero;"/></svg>