<?xml version="1.0" encoding="UTF-8" standalone="no"?><!DOCTYPE svg PUBLIC "-//W3C//DTD SVG 1.1//EN" "http://www.w3.org/Graphics/SVG/1.1/DTD/svg11.dtd"><svg width="100%" height="100%" viewBox="0 0 60 12" version="1.1" xmlns="http://www.w3.org/2000/svg" xmlns:xlink="http://www.w3.org/1999/xlink" xml:space="preserve" xmlns:serif="http://www.serif.com/" style="fill-rule:evenodd;clip-rule:evenodd;stroke-linecap:round;stroke-linejoin:round;stroke-miterlimit:1.5;"><path d="M60,0.65c0,-0.359 -0.291,-0.65 -0.65,-0.65l-58.7,0c-0.359,0 -0.65,0.291 -0.65,0.65l0,9.95c0,0.359 0.291,0.65 0.65,0.65l58.7,-0c0.359,-0 0.65,-0.291 0.65,-0.65l0,-9.95Z" style="fill:#666;"/><rect x="23.121" y="1.151" width="35.828" height="9" style="fill:#898e79;stroke:#fff;stroke-width:0.75px;"/><rect x="1.146" y="1.151" width="21.975" height="9" style="fill:#4f5b93;stroke:#fff;stroke-width:0.75px;"/><g transform="matrix(1,0,0,0.99725,0,-0.000327145)"><text x="25.105px" y="7.494px" style="font-family:'Arial-BoldMT', 'Arial', sans-serif;font-weight:700;font-size:5.264px;fill:#fff;">Powered</text></g><g><path d="M4.121,8.947l-1.121,-0l0.998,-5.128l2.15,-0c0.646,-0 1.121,0.17 1.414,0.507c0.299,0.341 0.385,0.811 0.267,1.424c-0.048,0.251 -0.133,0.481 -0.245,0.689c-0.118,0.208 -0.267,0.4 -0.454,0.571c-0.224,0.208 -0.469,0.357 -0.742,0.448c-0.272,0.091 -0.619,0.133 -1.045,0.133l-0.961,0l-0.261,1.356Zm2.449,-4.088c-0.144,-0.155 -0.427,-0.235 -0.849,-0.235l-0.763,0l-0.416,2.151l0.678,-0c0.448,-0 0.784,-0.086 1.008,-0.256c0.219,-0.171 0.369,-0.454 0.449,-0.849c0.069,-0.384 0.032,-0.651 -0.107,-0.811Z" style="fill:#fff;"/><path d="M8.646,2.453l1.109,-0l-0.266,1.366l0.987,-0c0.624,-0 1.051,0.106 1.286,0.325c0.235,0.219 0.309,0.571 0.213,1.057l-0.464,2.39l-1.126,0l0.443,-2.273c0.048,-0.256 0.032,-0.432 -0.053,-0.528c-0.086,-0.096 -0.272,-0.139 -0.555,-0.139l-0.886,0l-0.571,2.94l-1.115,0l0.998,-5.138Z" style="fill:#fff;fill-rule:nonzero;"/><path d="M12.84,8.947l-1.121,-0l0.998,-5.128l2.156,-0c0.645,-0 1.12,0.17 1.414,0.507c0.299,0.341 0.384,0.811 0.267,1.424c-0.048,0.251 -0.134,0.481 -0.246,0.689c-0.117,0.208 -0.267,0.4 -0.453,0.571c-0.224,0.208 -0.47,0.357 -0.742,0.448c-0.272,0.091 -0.619,0.133 -1.046,0.133l-0.96,0l-0.267,1.356Zm2.454,-4.088c-0.144,-0.155 -0.427,-0.235 -0.848,-0.235l-0.768,0l-0.417,2.151l0.678,-0c0.448,-0 0.784,-0.086 1.009,-0.256c0.218,-0.171 0.368,-0.454 0.448,-0.849c0.069,-0.384 0.037,-0.651 -0.102,-0.811Z" style="fill:#fff;"/><path d="M19.899,4.822c-0.304,-0.726 -0.56,-1.356 -0.309,-1.793c0.096,-0.133 0.203,-0.203 0.32,-0.203c0.24,0 0.459,0.262 0.459,0.262l0.304,0.368l-0.192,-0.438c-0.011,-0.016 -0.336,-0.757 -0.918,-0.757c-0.203,-0 -0.416,0.09 -0.624,0.272l-0.005,0.005c-0.507,0.587 -0.011,1.697 0.432,2.673l0.325,0.758c0,0 0.032,0.027 0,0c0.15,0.39 0.299,0.854 0.208,1.195c-0.138,0.534 -0.613,0.897 -0.619,0.902l-0.304,0.235l0.368,-0.117c0.038,-0.011 0.854,-0.278 1.052,-0.988c0.122,-0.581 -0.032,-1.163 -0.187,-1.611c0.021,-0.016 -0.021,0.016 -0,-0l-0.283,-0.731" style="fill:#fff;fill-rule:nonzero;"/><path d="M20.801,2.762l-0.379,-0.416l0.272,0.496c0.006,0.005 0.337,0.624 -0.085,1.345c-0.155,0.224 -0.395,0.448 -0.699,0.672l-0.55,0.358c-0.005,-0.011 -0.005,-0.006 0,-0l-0.021,0.016l0.005,-0l-0.005,-0c-0.614,0.352 -1.184,0.565 -1.195,0.571c-0.849,0.379 -1.382,0.966 -1.457,1.617c-0.059,0.49 0.171,0.971 0.619,1.307l0.005,0.005c0.283,0.171 0.587,0.256 0.908,0.256c0.837,0 1.494,-0.581 1.52,-0.608l0.411,-0.368l-0.485,0.256c-0.006,-0 -0.411,0.213 -0.833,0.213c-0.379,0 -0.645,-0.165 -0.806,-0.501c-0.202,-0.715 0.507,-1.206 1.324,-1.772c0.107,-0.074 0.219,-0.155 0.331,-0.229l0.005,-0.006l0.486,-0.362c0.005,-0.011 0.021,-0.022 0.021,-0.022c0.4,-0.331 0.928,-0.848 1.051,-1.574c0.096,-0.656 -0.421,-1.227 -0.443,-1.254Z" style="fill:#0f0f0f;fill-rule:nonzero;"/></g></svg>