<?xml version="1.0" encoding="UTF-8" standalone="no"?><!DOCTYPE svg PUBLIC "-//W3C//DTD SVG 1.1//EN" "http://www.w3.org/Graphics/SVG/1.1/DTD/svg11.dtd"><svg width="100%" height="100%" viewBox="0 0 60 12" version="1.1" xmlns="http://www.w3.org/2000/svg" xmlns:xlink="http://www.w3.org/1999/xlink" xml:space="preserve" xmlns:serif="http://www.serif.com/" style="fill-rule:evenodd;clip-rule:evenodd;stroke-linecap:round;stroke-linejoin:round;stroke-miterlimit:1.5;"><path d="M60,0.65c0,-0.359 -0.291,-0.65 -0.65,-0.65l-58.7,0c-0.359,0 -0.65,0.291 -0.65,0.65l0,9.95c0,0.359 0.291,0.65 0.65,0.65l58.7,-0c0.359,-0 0.65,-0.291 0.65,-0.65l0,-9.95Z" style="fill:#666;"/><rect x="23.121" y="1.151" width="35.828" height="9" style="fill:#898e79;stroke:#fff;stroke-width:0.75px;"/><rect x="1.146" y="1.151" width="21.975" height="9" style="fill:#4f5b93;stroke:#fff;stroke-width:0.75px;"/><g transform="matrix(1,0,0,0.99725,-2.22045e-16,-0.000326916)"><text x="25.95px" y="7.494px" style="font-family:'Arial-BoldMT', 'Arial', sans-serif;font-weight:700;font-size:5.264px;fill:#fff;">Powered</text></g><g><path d="M6.035,8.898l-1.12,-0l0.997,-5.128l2.151,-0c0.646,-0 1.12,0.171 1.414,0.507c0.299,0.341 0.384,0.811 0.267,1.425c-0.048,0.25 -0.134,0.48 -0.246,0.688c-0.117,0.208 -0.267,0.4 -0.453,0.571c-0.224,0.208 -0.47,0.357 -0.742,0.448c-0.272,0.091 -0.619,0.133 -1.046,0.133l-0.96,0l-0.262,1.356Zm2.449,-4.088c-0.144,-0.154 -0.426,-0.234 -0.848,-0.234l-0.763,-0l-0.416,2.15l0.677,0c0.449,0 0.785,-0.085 1.009,-0.256c0.219,-0.171 0.368,-0.454 0.448,-0.849c0.07,-0.384 0.032,-0.651 -0.107,-0.811Z" style="fill:#fff;"/><path d="M10.56,2.404l1.11,-0l-0.267,1.366l0.987,-0c0.625,-0 1.052,0.107 1.286,0.325c0.235,0.219 0.31,0.571 0.214,1.057l-0.464,2.39l-1.126,0l0.443,-2.273c0.048,-0.256 0.032,-0.432 -0.054,-0.528c-0.085,-0.096 -0.272,-0.139 -0.555,-0.139l-0.885,0l-0.571,2.94l-1.116,0l0.998,-5.138Z" style="fill:#fff;fill-rule:nonzero;"/><path d="M14.754,8.898l-1.12,-0l0.998,-5.128l2.155,-0c0.646,-0 1.121,0.171 1.414,0.507c0.299,0.341 0.385,0.811 0.267,1.425c-0.048,0.25 -0.133,0.48 -0.245,0.688c-0.118,0.208 -0.267,0.4 -0.454,0.571c-0.224,0.208 -0.469,0.357 -0.741,0.448c-0.273,0.091 -0.619,0.133 -1.046,0.133l-0.961,0l-0.267,1.356Zm2.455,-4.088c-0.144,-0.154 -0.427,-0.234 -0.848,-0.234l-0.769,-0l-0.416,2.15l0.678,0c0.448,0 0.784,-0.085 1.008,-0.256c0.219,-0.171 0.368,-0.454 0.448,-0.849c0.07,-0.384 0.038,-0.651 -0.101,-0.811Z" style="fill:#fff;"/></g></svg>