<?xml version="1.0" encoding="UTF-8" standalone="no"?><!DOCTYPE svg PUBLIC "-//W3C//DTD SVG 1.1//EN" "http://www.w3.org/Graphics/SVG/1.1/DTD/svg11.dtd"><svg width="100%" height="100%" viewBox="0 0 80 15" version="1.1" xmlns="http://www.w3.org/2000/svg" xmlns:xlink="http://www.w3.org/1999/xlink" xml:space="preserve" xmlns:serif="http://www.serif.com/" style="fill-rule:evenodd;clip-rule:evenodd;stroke-linecap:round;stroke-linejoin:round;stroke-miterlimit:1.5;"><path d="M80,0.867c0,-0.479 -0.388,-0.867 -0.867,-0.867l-78.266,0c-0.479,0 -0.867,0.388 -0.867,0.867l0,13.266c0,0.479 0.388,0.867 0.867,0.867l78.266,0c0.479,0 0.867,-0.388 0.867,-0.867l0,-13.266Z" style="fill:#666;"/><rect x="1.527" y="1.534" width="31.026" height="12" style="fill:#f60;stroke:#fff;stroke-width:1px;"/><rect x="32.553" y="1.534" width="46.045" height="12" style="fill:#898e79;stroke:#fff;stroke-width:1px;"/><text x="12.745px" y="10.04px" style="font-family:'Arial-BoldMT', 'Arial', sans-serif;font-weight:700;font-size:7px;fill:#fff;">RSS</text><path d="M5.125,9.066c0.535,-0 0.975,0.44 0.975,0.975c0,0.527 -0.438,0.975 -0.975,0.975c-0.528,-0 -0.975,-0.448 -0.975,-0.975c0,-0.535 0.44,-0.975 0.975,-0.975m-0.975,-5.009c3.818,-0 6.959,3.141 6.959,6.959l-1.265,-0c-0,-3.124 -2.57,-5.694 -5.694,-5.694l0,-1.265m0,2.531c2.429,-0 4.428,1.999 4.428,4.428l-1.266,-0c0,-1.735 -1.427,-3.162 -3.162,-3.162l0,-1.266Z" style="fill:#fff;fill-rule:nonzero;"/><text x="39.332px" y="9.954px" style="font-family:'Arial-BoldMT', 'Arial', sans-serif;font-weight:700;font-size:7px;fill:#fff;">XML<tspan x="53.981px 55.926px " y="9.954px 9.954px "> F</tspan>eed</text></svg>