<?xml version="1.0" encoding="UTF-8" standalone="no"?>
<!DOCTYPE svg PUBLIC "-//W3C//DTD SVG 1.1//EN" "http://www.w3.org/Graphics/SVG/1.1/DTD/svg11.dtd">
<svg width="100%" height="100%" viewBox="0 0 2291 160" version="1.1" xmlns="http://www.w3.org/2000/svg">
<style>
	.blue{fill:#AFDEFC;stroke:transparent;stroke-width:0}
	.green{fill:#d3f1d9;stroke:transparent;stroke-width:0}
	.beige{fill:#f7f7f7;stroke:transparent;stroke-width:0}
	.road{fill:none;stroke:#cfcbca;stroke-width:2px}
	@media (prefers-color-scheme: dark){
		.blue{fill:#354566}
		.green{fill:#243131}
		.beige{fill:#2B2D2F}
		.road{stroke:#414447}
	}
</style>
<rect x="-1" y="-1" width="2295" height="162" class="blue" />
<path d="M431.591,38.25L412.438,51.986L382.617,50.223L372.551,52.299L342.392,52.853L328.513,61.96L314.075,57.851L281.592,57.311L245.676,37.868L250.168,8.973L246.07,0.659L495.838,0.708L488.25,17.922L449.408,32.14L439.994,33.346L431.591,38.25Z" class="beige"/>
<path d="M404.25,0.708L394.005,7.476L386.365,15.835L382.977,17.705L368.559,16.432L346.162,12.678L340.486,7.843L323.267,7.074L309.813,0L404.25,0.708Z" class="green"/>
<path d="M496.167,0.708L490.142,16.094L485.378,21.911L478.373,28.06L447.365,32.558L449.623,17.808L432.886,14.049L428.192,18.597L432.368,22.274L430.435,25.329L432.368,22.274L437.384,21.04L438.516,27.888L433.657,29.06L431.618,31.563L440.555,31.709L428.06,41.474L416.572,48.703L408.999,46.517L402.34,51.439L384.063,50.202L385.955,46.648L389.025,44.41L393.25,37.793L394.799,33.155L401.72,33.074L401.416,29.139L394.045,28.461L391.163,26.079L387.754,34.379L381.657,35.969L379.738,41.475L381.157,45.78L370.681,52.85L357.634,55.244L341.802,52.25L342.813,49.597L350.108,47.737L349.444,42.99L343.254,40.683L337.044,42.997L332.025,45.951L325.889,42.534L326.704,51.63L330.285,52.544L331.982,49.053L339.031,50.517L338.376,55.173L328.871,61.443L316.274,58.322L281.676,57.679L249.058,43.344L239.967,31.788L249.234,8.528L248.305,4.289L251.656,1.052L283.836,0L289.322,4.645L285.522,5.601L285.099,10.306L289.717,9.754L295.457,6.757L297.937,9.244L301.962,6.425L300.007,0.563L306.138,0.715L314.319,5.602L322.828,9.241L330.581,9.608L340.863,10.651L345.215,14.981L358.476,17.237L372.431,19.892L382.637,20.602L388.167,18.195L395.742,9.904L403.543,4.419L410.447,0.464L496.167,0.708Z" class="green"/>
<path d="M596.197,45.164L601.065,47.941L606.829,51.226L607.323,56.468L602.786,57.102L596.197,45.164Z" class="beige"/>
<path d="M542.352,61.964L547.707,72.692L544.737,78.526L536.913,78.96L527.685,81.655L514.746,78.067L529.616,60.684L542.352,61.964Z" class="beige"/>
<path d="M672.65,38.25L665.603,45.164L661.385,51.754L661.309,55.846L663.195,60.986L661.926,66.717L656.212,68.698L640.859,61.18L640.168,54.316L630.367,51.085L622.287,51.829L609.131,57.95L611.002,49.758L610.143,47.105L606.305,44.049L606.457,40.495L601.065,37.716L601.184,29.664L609.63,23.37L618.651,23.488L620.495,15.371L624.448,16.963L639.187,7.852L647.903,6.475L670.763,7.466L678.503,16.137L687.848,23.328L687.674,30.449L676.333,33.081L672.65,38.25Z" class="beige"/>
<path d="M770.72,45.164L773.54,43.336L774.149,30.426L786.428,29.784L792.604,24.856L794.135,22.16L789.124,17.018L797.391,17.716L805.497,13.584L803.582,6.648L799.422,6.446L794.087,10.421L790.919,9.076L793.378,0.708L699.577,0.708L701.799,3.883L707.078,4.566L709.768,10.796L705.219,9.306L700.979,11.384L697.948,14.068L696.59,9.382L693.422,10.494L691.225,17.634L695.97,19.11L700.917,26.666L706.295,30.509L716.147,30.181L719.979,24.575L719.631,20.483L725.308,16.758L728.847,19.152L732.622,14.213L738.216,15.876L742.115,14.076L749.73,16.577L767.14,15.293L773.498,18.717L775.546,22.914L770.268,24.776L766.879,22.538L757.55,27.728L761.088,38.25L765.065,38.25L770.72,45.164Z" class="beige"/>
<path d="M1963.96,127.994L1965.35,136.905L1961.39,141.22L1959.06,136.852L1957.22,135.183L1963.96,127.994Z" class="beige"/>
<path d="M1335.1,160.708L1326.5,154.611L1322.79,158.129L1317.54,155.919L1314.66,160.708L1335.1,160.708Z" class="beige"/>
<path d="M1341.69,74.822L1339.11,71.818L1339.45,62.855L1331.28,64.395L1311.31,101.035L1323.91,105.53L1328.37,105.738L1337.95,94.757L1341.69,74.822Z" class="beige"/>
<path d="M1418.56,62.369L1426.06,58.045L1431.99,46.683L1437.17,29.936L1466.82,29.936L1465.24,20.896L1465.37,17.306L1469.95,15.012L1480.71,22.909L1489.99,14.239L1499.08,16.555L1499.08,22.072L1502.23,22.921L1500.61,12.057L1505.27,9.354L1517.41,14.215L1534.15,15.664L1531.88,4.012L1524.67,0.708L1233,0.708L1269.13,20.588L1285.29,54.08L1294.41,59.164L1305.21,58.045L1314.66,38.25L1330.72,38.25L1335.36,14.205L1366.94,18.274L1369.08,29.936L1364.89,38.25L1359.78,62.983L1401.61,74.822L1409.64,68.911L1418.56,62.369Z" class="beige"/>
<path d="M1395.32,133.115L1404.3,133.386L1397.36,126.782L1403.18,123.519L1405.15,114.973L1386.8,108.116L1375.08,120.708L1383.58,132.59L1395.32,133.115Z" class="beige"/>
<path d="M2256.38,160.708L2251.22,155.391L2257.71,148.559L2251.23,140.216L2256.7,140.216L2261.7,125.069L2278.15,125.417L2277.69,131.18L2279.77,136.905L2274.35,145.609L2273.85,148.559L2263.87,160.708L2256.38,160.708Z" class="beige"/>
<path d="M1495.59,0.708L1499.08,10.319L1497.98,16.696L1494.87,17.414L1490.28,26.466L1487.73,28.584L1480.51,23.442L1475.4,7.004L1469.08,7.317L1458.78,17.697L1458.91,21.143L1463.38,23.4L1467.08,28.126L1467.92,38.25L1463.12,40.471L1453.68,38.25L1449.92,39.47L1440.77,34.454L1437.93,38.375L1434.73,39.942L1434.51,51.242L1425.99,58.033L1420.41,59.164L1418.31,54.995L1428.91,46.629L1431,32.878L1428.68,26.809L1432.47,19.859L1437.03,14.124L1438.97,5.736L1436.69,0.708L1495.59,0.708Z" class="green"/>
<path d="M1430.99,0.708L1192.14,0.708L1191.68,11.206L1198.54,14.283L1200.35,27.702L1201.71,38.606L1205.98,47.342L1212.95,50.029L1227.3,49.718L1231.01,42.69L1230.95,34.751L1235.38,29.689L1239.42,32.358L1238.97,38.25L1248.37,38.25L1253.94,31.3L1261.38,32.195L1265.2,38.565L1266.08,45.628L1288.41,65.509L1294.62,63.728L1296.82,68.044L1299.17,67.456L1298.33,60.549L1294.08,50.028L1284.54,41.277L1292.01,35.653L1299.61,47.859L1304.79,57.747L1308.81,58.745L1312.81,50.947L1316.37,49.154L1316.01,45.501L1318.36,43.019L1322.47,47.974L1318.51,57.956L1318.82,72.483L1315.34,69.668L1313.08,71.542L1316.04,78.643L1315.85,87.301L1312.88,89.742L1304.31,91.069L1297.08,94.336L1295.95,99.956L1305.77,113.144L1310.61,113.367L1312.1,115.782L1316.62,115.208L1317.6,107.315L1323.85,105.483L1328.1,99.061L1328.98,84.497L1336.53,73.159L1339.37,62.902L1343.98,37.954L1348.07,23.187L1355.91,20.263L1365.8,23.303L1368.4,30.31L1379.01,32.923L1383.06,37.516L1388.66,40.057L1389.15,45.062L1364.72,36.491L1357.71,42.677L1349.24,51.348L1343.91,63.842L1349.68,71.73L1365.92,80.305L1379.72,82.993L1390.1,82.471L1399.73,80.582L1401.25,74.11L1400.74,69.738L1404.11,64.797L1408.91,68.618L1418.81,61.104L1416.13,54.855L1427.27,44.753L1428.48,33.076L1426.99,26.245L1434.75,13.392L1436.69,5.124L1430.99,0.708Z" class="beige"/>
<path d="M1636.63,0.708L1637.06,4.663L1632.75,9.294L1622.01,14.414L1610.25,8.914L1606.94,5.093L1610.92,0.708L1636.63,0.708Z" class="green"/>
<path d="M1537.49,0.708L1511.86,0.708L1515.9,2.868L1530.59,5.517L1533,7.317L1537.49,0.708Z" class="green"/>
<path d="M1503.8,0.708L1502.16,9.691L1503.46,16.249L1508.64,20.896L1514.51,16.571L1518.38,18.244L1524.03,19.459L1524.5,16.401L1529.7,19.011L1535.88,19.675L1539.17,18.25L1545.42,24.139L1549.74,23.99L1554.35,27.702L1557.71,27.488L1561.6,22.719L1561.56,19.934L1550.12,16.543L1547.13,13.932L1538.28,13.802L1533.06,10.784L1529.35,13.93L1522.83,12.612L1520.5,7.764L1513.78,6.939L1508.95,0.708L1503.8,0.708Z" class="green"/>
<path d="M1800.25,28.119L1808.82,24.959L1816.63,26.209L1817.15,17.975L1820.72,17.518L1820.69,11.412L1815.36,8.004L1817.73,0.708L1778.14,0.708L1792.54,9.447L1800.25,28.119Z" class="green"/>
<path d="M2210.73,160.708L2220.87,148.2L2226.32,149.2L2231.29,151.425L2223.62,160.708L2210.73,160.708Z" class="beige"/>
<path d="M2173.1,81.029L2165.97,88.124L2160.26,91.971L2162.74,99.058L2155.74,106.695L2155.62,110.131L2157.35,113.76L2160.77,108.923L2164.52,106.973L2167.62,107.95L2172.13,109.403L2171.84,103.976L2175.57,98.418L2180.26,92.831L2180.2,87.738L2177.75,85.242L2177.87,81.548L2173.1,81.029Z" class="beige"/>
<path d="M2094.18,53.927L2095.24,49.114L2091.7,42.186L2085.23,46.304L2079.57,45.706L2081.41,49.661L2085.59,51.346L2086.6,53.561L2094.18,53.927Z" class="beige"/>
<path d="M1995.08,160.708L1985.24,154.822L1983.43,142.807L1992.53,145.872L2000.55,140.441L2005.74,128.058L2013.88,128.217L2019.76,134.437L2019.96,148.559L2016.07,153.7L2007.78,155.308L2000.47,156.446L1995.08,160.708Z" class="beige"/>
<ellipse cx="2038.22" cy="137.221" rx="3.984" ry="3.434" class="beige"/>
<ellipse cx="2086.85" cy="146.471" rx="1.511" ry="2.088" class="beige"/>
<ellipse cx="2067.04" cy="91.145" rx="1.736" ry="3.095" class="beige"/>
<ellipse cx="2064.56" cy="82.329" rx="2.48" ry="3.365" class="beige"/>
<path d="M2058.29,64.46L2055.13,58.746L2057.18,54.149L2062.08,52.01L2068.77,58.965L2073.37,57.463L2074.85,49.646L2081,51.336L2082.8,55.138L2086.85,58.875L2088.36,64.749L2086.85,69.033L2085.34,75.006L2080.92,75.009L2077.04,71.264L2075.52,63.428L2071.72,62.212L2067.04,67.432L2058.29,64.46Z" class="beige"/>
<path d="M2032.88,2.316L2032.07,8.793L2038.72,15.098L2042.54,15.463L2045.16,17.066L2047.77,15.206L2050.25,17.531L2052.34,15.438L2052.17,11.758L2050.48,8.125L2044.13,7.385L2043.55,10.397L2040.08,10.013L2039.04,4.786L2032.88,2.316Z" class="beige"/>
<path d="M1956.9,32.375L1948.93,32.266L1938.53,29.798L1929.87,8.838L1932.94,8.667L1938.03,3.415L1951.66,5.673L1957.51,22.792L1956.44,26.011L1956.9,32.375Z" class="beige"/>
<path d="M1924.4,120.708L1916.94,111.524L1918.25,104.972L1921.14,104.972L1924.79,107.997L1928.47,96.15L1924.64,90.381L1908,87.49L1909.24,76.385L1914.43,70.243L1917.54,70.401L1926.02,86.332L1942.67,101.662L1961.39,111.524L1961.07,116.769L1953.69,116.505L1950.97,120.708L1949.16,134.047L1957.51,137.772L1958.76,148.559L1949.56,148.292L1943.69,138.058L1933.9,134.609L1924.4,120.708Z" class="beige"/>
<path d="M1928.57,46.276L1921.05,44.444L1919.18,39.369L1922.31,36.651L1921.68,33.025L1917.2,31.064L1913.98,32.447L1913.43,27.15L1907.09,23.848L1903.28,18.796L1906.95,15.518L1910.61,14.959L1909.97,10.314L1913.4,9.799L1914.5,15.412L1925.66,18.005L1927.06,23.12L1924.92,28.223L1930.97,36.269L1928.57,46.276Z" class="beige"/>
<path d="M1891.28,104.725L1887.01,96.306L1884.55,93.981L1886.6,85.034L1883.26,78.344L1873.91,78.64L1875.54,64.378L1870.57,70.202L1867.38,65.23L1868.8,61.096L1854.67,49.62L1850.97,49.677L1848.31,55.855L1847.92,62.888L1856.07,73.138L1850.97,78.658L1854.31,82.164L1854.66,95.245L1859.83,104.725L1869.86,101.662L1870,107.997L1878.16,111.524L1891.28,104.725Z" class="beige"/>
<path d="M1787.17,114.331L1784.05,111.286L1785.31,107.209L1785.77,101.72L1789.1,101.662L1790.68,108.692L1787.17,114.331Z" class="beige"/>
<path d="M1807.09,120.708L1809.54,116.251L1809.9,110.98L1817.78,108.1L1819.21,101.527L1811.59,96.293L1817.07,82.164L1837.01,82.164L1833.86,88.741L1833.2,94.035L1840.57,97.461L1846.56,98.763L1850.97,110.821L1844.62,110.707L1843.95,113.937L1848.65,120.708L1845.24,127.408L1838.22,126.619L1832.16,130.122L1830.13,136.555L1823.6,141.22L1810.09,137.442L1807.21,129.335L1807.09,120.708Z" class="beige"/>
<ellipse cx="1839.67" cy="136.905" rx="3.471" ry="3.311" class="beige"/>
<path d="M1641.88,120.708L1641.62,114.18L1646.64,112.669L1649.62,99.489L1656.27,102.075L1659.52,91.083L1668.22,93.311L1671.31,96.16L1673.19,88.741L1685.2,88.741L1682.04,104.634L1683.37,107.77L1676.02,120.708L1673.74,130.383L1690.3,134.415L1691.68,139.177L1684.44,151.262L1693.16,160.708L1685.71,160.708L1682.35,155.587L1668.94,160.708L1653.05,139.776L1654.34,132.902L1641.88,120.708Z" class="beige"/>
<path d="M2110.11,38.25L2108.44,40.656L2106.07,41.244L2103.83,46.565L2104.73,49.646L2112.05,52.48L2117.11,48.71L2115.77,40.945L2112.36,39.991L2110.11,38.25Z" class="beige"/>
<path d="M1711.13,124.725L1720.16,113.82L1715.33,107.198L1714.13,99.958L1707.64,93.432L1702.05,98.967L1692.49,91.083L1695.05,79.181L1705.99,76.518L1712.85,71.818L1718.39,84.485L1728.64,64.629L1735.38,66.59L1738,62.177L1737.67,57.572L1742.32,54.687L1740.21,50.126L1744.42,49.846L1748.01,43.619L1763.05,44.44L1770.97,54.869L1771.46,76.701L1779.64,81.208L1780.22,68.874L1778.2,64.629L1781.24,58.658L1777.86,52.554L1782.9,46.989L1786.15,49.443L1783.7,52.554L1788.5,58.562L1793.01,52.554L1797.75,75.47L1794.72,78.349L1780.47,83.399L1764.63,88.741L1765.01,100.006L1769.78,109.061L1768.28,113.629L1762.19,114.208L1760.99,120.708L1770.61,124.725L1767.66,134.253L1772.33,139.548L1765,139.919L1759.05,145.564L1765.13,151.211L1747.67,148.17L1736.58,156.71L1739.66,160.708L1698.66,160.708L1701.69,149.781L1700.61,144.174L1707.09,137.808L1723.18,134.426L1723.48,130.092L1711.13,124.725Z" class="beige"/>
<path d="M1488.98,91.083L1479.53,90.138L1478.57,86.965L1467.39,81.401L1458.01,75.054L1453.68,71.661L1455.25,67.257L1458.01,69.542L1472.85,69.958L1477.31,64.629L1481.42,67.585L1494.18,55.27L1499.64,58.697L1502.36,52.614L1509.77,52.554L1513.72,56.507L1512.3,58.336L1504.6,55.914L1504.61,70.964L1491.8,86.398L1488.98,91.083Z" class="beige"/>
<path d="M1655.94,0.708L1650.65,4.207L1649.28,13.906L1625.96,21.024L1607.78,34.015L1589.95,52.554L1592.39,64.629L1601.39,78.342L1610.35,80.537L1619.63,88.741L1623.81,78.143L1638.04,77.832L1630.14,56.622L1628.09,52.554L1633.64,47.434L1656.39,56.511L1656.76,48.248L1672.46,36.508L1686.33,40.319L1707.76,27.228L1707.16,33.634L1718.74,27.308L1732.05,35.391L1745.88,35.513L1749.98,39.076L1768.32,30.604L1750.4,14.145L1748.2,2.939L1760.45,5.14L1765.79,0.708L1655.94,0.708Z" class="beige"/>
<path d="M1433.86,64.629L1434.06,70.117L1428.15,78.717L1413.66,78.255L1424.1,93.713L1438.87,96.196L1442.28,99.489L1440.67,105.214L1424.76,108.501L1424.12,114.18L1416.65,120.708L1431.25,128.871L1427.62,143.108L1418.37,151.493L1431.69,160.708L1502.36,160.708L1492.8,144.98L1486.97,153.964L1480.34,145.478L1473.79,144.853L1474.46,135.224L1478.55,135.224L1474.76,128.871L1471.33,125.608L1461.84,135.224L1457.21,135.224L1454.68,125.069L1456.51,120.708L1463.84,120.708L1467.78,107.811L1473.41,107.126L1447.4,74.756L1433.86,64.629Z" class="beige"/>
<path d="M7.437,113.626L13.89,113.377L16.296,108.11L34.336,114.004L44.944,102.176L57.601,101.938L61.627,111.483L58.866,115.808L70.307,122.399L73.395,118.793L72.198,107.632L71.094,104.657L83.65,99.489L84.593,101.441L96.635,102.436L110.232,125.333L97.677,125.333L83.463,122.828L69.064,126.225L60.934,128.871L54.358,122.561L44.92,128.871L38.383,122.798L32.039,128.871L17.26,128.871L7.437,113.626Z" class="beige"/>
<path d="M88.801,139.628L85.773,133.728L81.592,133.804L79.95,130.819L67.684,136.257L76.087,136.88L82.049,139.628L88.801,139.628Z" class="beige"/>
<path d="M241.852,151.55L232.256,149.203L225.193,145.254L215.561,151.55L202.352,158.253L193.198,155.798L187.584,154.901L176.386,140.148L168.373,142.607L155.444,135.178L144.75,131.497L142.968,128.634L145.419,122.879L160.526,116.625L164.903,122.736L172.219,115.808L182.887,107.13L189.532,101.482L196.479,102.029L203.351,99.489L215.344,105.18L223.051,107.23L228.157,101.878L248.899,102.206L265.023,111.988L269.627,113.491L270.482,120.708L277.121,125.424L277.789,135.995L278.883,139.574L272.636,138.334L265.779,136.644L257.351,142.607L248.309,149.203L241.852,151.55Z" class="beige"/>
<path d="M135.28,125.333L137.281,133.014L134.334,138.604L136.774,144.772L138.629,148.857L135.185,153.923L130.105,150.742L122.491,142.326L126.95,137.094L123.49,130.792L135.28,125.333Z" class="beige"/>
<path d="M939.707,0.708L939.032,7.353L938.766,14.725L936.989,18.51L932.202,23.867L943.179,40.607L939.592,40.562L930.892,31.948L929.15,38.99L932.14,42.579L930.357,44.316L924.99,41.057L918.679,48.314L919.116,51.379L923.629,58.502L934.15,58.62L980.249,114.107L1007.62,102.07L1010.03,101.933L1014.62,109.697L1000.5,138.312L996.595,141.242L989.667,133.56L967.668,136.858L961.979,151.075L976.601,160.708L933.583,160.708L930.349,157.494L909.924,160.708L272.891,160.708L273.475,149.203L277.203,149.203L279.933,152.069L286.883,151.568L292.023,159.579L298.958,160.064L309.792,148.595L325.265,144.368L328.738,139.071L327.39,133.455L324.177,130.569L312.766,133.383L310.234,130.992L305.206,131.806L292.172,136.843L288.066,134.701L291.396,126.483L295.402,127.696L300.627,123.575L300.475,120.631L288.826,114.485L286.5,111.095L284.346,104.223L304.645,87.797L336.377,85.128L359.762,96.473L363.72,101.174L362.984,104.377L358.284,111.52L355.977,113.069L357.706,115.13L368.707,119.395L371.263,132.576L374.879,132.428L380.435,116.887L403.389,116.025L406.531,110.725L402.72,103.46L410.024,104.048L424.892,96.798L435.75,96.484L445.453,107.418L471.468,107.745L503.87,95.574L535.727,117.001L552.761,118.128L589.591,101.879L590.101,92.595L594.835,78.918L610.689,69.631L622.935,69.713L632.483,61.844L652.903,70.553L651.2,72.502L654.121,78.019L665.085,75.943L670.954,75.671L673.364,65.871L697.445,70.049L691.616,73.331L686.253,78.087L677.775,76.372L675.736,80.708L684.034,92.802L704.4,93.425L720.962,73.092L722.258,57.466L722.707,44.523L736.979,57.501L764.664,54.188L766.24,70.682L764.867,76.369L754.166,93.087L748.902,110.617L751.293,118.953L791.43,99.648L799.415,99.239L806.104,99.197L811.455,97.975L818.049,89.123L817.239,85.501L806.423,75.416L803.675,66.127L813.298,60.855L816.947,55.632L840.53,63.934L848.597,74.843L849.49,63.63L853.241,53.694L840.283,33.403L841.898,31.356L855.567,49.614L869.41,49.455L869.41,39.649L867.765,33.156L871.74,23.395L865.734,18.082L858.165,9.472L848.067,8.186L837.862,5.896L826.906,15.215L824.923,17.073L807.998,2.702L806.651,0.708L939.707,0.708Z" class="beige"/>
<path d="M321.709,160.708L319.859,158.944L318.81,154.302L317.151,149.451L308.679,147.022L304.858,149.706L299.881,158.221L296.009,159.728L290.281,158.897L288.401,154.604L287.445,151.24L285.556,151.197L284.663,153.076L278.969,151.404L274.739,145.523L272.636,149.152L272.753,155.9L272.891,160.708L321.709,160.708Z" class="green"/>
<path d="M305.127,126.586L299.834,123.339L296.587,126.013L295.699,127.65L291.558,125.289L288.872,128.759L285.284,133.891L287.714,135.271L292.44,134.559L296.466,135.413L301.894,133.793L305.44,131.039L305.127,126.586Z" class="green"/>
<path d="M618.366,150.257L614.521,144.818L608.845,139.703L608.311,137.56L614.309,131.775L617.409,129.998L619.717,132.325L621.54,135.261L617.101,138.307L625.029,139.19L630.587,141.183L634.271,144.172L636.596,148.677L636.043,152.656L634.355,150.825L626.445,150.321L623.769,147.996L622.034,150.458L618.366,150.257Z" class="green"/>
<path d="M669.412,160.708L664.988,157.226L657.032,155.915L648.491,155.798L646.075,158.758L644.859,160.708L669.412,160.708Z" class="green"/>
<path d="M937.399,0.708L936.168,9.277L938.463,15.362L936.903,18.493L933.166,16.208L928.805,16.658L927.512,30.716L921.778,38.25L919.362,41.508L913.749,41.617L913.924,49.989L918.653,51.438L920.366,53.769L914.632,52.826L911.015,55.036L912.157,60.374L917.954,62.927L927.236,61.132L934.285,58.808L942.446,59.33L955.084,77.783L969.361,95.918L980.337,109.854L985.249,110.548L991.034,107.919L995.93,102.265L1001.18,103.301L1004.28,104.222L1007.42,101.957L1006.54,105.833L998.496,110.52L986.963,117.227L980.262,120.708L969.445,125.56L960.606,126.385L955.68,125.468L949.454,125.01L940.762,129.546L934.247,129.24L929.513,127.248L920.763,129.928L910.625,131.719L904.963,132.243L904.243,133.742L909.027,134.05L914.837,133.195L924.757,131.948L922.798,134.202L920.322,134.85L918.931,137.225L914.107,135.461L911.59,135.582L913.46,138.762L917.143,140.227L920.316,142.539L929.093,137.61L934.66,137.682L935.497,140.741L932.937,142.713L936.252,145.296L942.748,140.921L939.809,134.954L939.878,132.276L943.97,130.988L949.925,127.162L956.086,128.58L964.726,128.404L972.689,127.355L982.637,122.277L992.73,116.563L1004.28,110.378L1009.27,106.705L1010.19,102.306L1013.24,107.926L1007.47,125.429L999.972,142.299L995.523,138.908L989.441,133.633L975.973,136.423L974.104,140.287L965.169,142.217L958.87,151.677L957.825,157.318L970.501,159.023L976.209,160.708L938.139,160.708L936.022,157.324L932.109,156.03L931.132,158.536L927.448,160.708L909.474,160.708L906.988,159.327L901.719,159.403L899.844,160.708L840.063,160.708L839.251,157.041L835.656,156.288L834.308,154.755L831.759,157.78L828.866,159.141L828.339,160.708L813.112,160.708L811.711,159.075L810.536,160.708L801.123,160.708L799.952,158.535L796.71,158.234L793.474,160.708L749.234,160.708L748.368,158.212L744.758,158.018L742.847,157.012L739.171,158.7L735.48,159.542L734.846,160.708L709.537,160.708L708.843,158.57L704.703,158.004L702.216,156.451L699.308,158.699L699.079,160.708L684.993,160.708L681.338,159.48L677.524,160.708L675.736,160.708L677.925,157.587L678.143,154.659L679.736,153.983L680.718,156.394L686.502,157.178L686.64,152.723L684.81,150.671L686.962,149.035L687.036,145.354L683.583,147.645L680.878,148.94L678.073,145.391L680.092,139.137L683.505,135.692L686.231,136.703L689.567,136.148L695.45,136.814L701.253,136.385L703.703,138.548L714.138,139.124L717.321,137.386L720.068,138.71L723.909,136.687L728.313,136.232L734.633,132.077L736.382,128.341L732.858,123.96L727.406,123.641L724.994,126.478L720.289,126.41L717.138,123.459L713.236,126.234L707.918,122.387L704.498,122.286L702.049,120.708L699.857,122.442L697.872,123.083L696.102,126.387L690.87,123.039L683.566,118.882L680.525,118.201L677.315,116.502L676.597,113.497L679.984,108.042L684.009,105.967L688.711,107.279L693.256,104.178L699.335,100.041L702.02,98.761L703.748,94.703L705.498,90.808L713.479,81.965L720.503,73.233L723.762,74.578L724.882,77.302L720.527,79.351L718.629,80.325L720.444,82.308L724.197,83.891L725.153,87.389L723.632,89.232L726.154,91.619L724.523,93.892L723.016,98.159L722.183,102.275L726.585,103.291L730.13,100.537L729.927,94.699L727.769,83.423L727.557,76.683L727.825,72.144L729.741,70.95L730.186,62.927L728.055,59.041L724.617,58.448L722.057,57.458L723.111,53.675L724.744,49.442L722.528,46.493L720.184,43.256L720.216,39.386L722.826,38.25L725.69,41.976L728.787,46.798L732.836,51.709L737.766,51.399L739.6,47.462L741.919,43.998L749.916,43.245L754.854,44.288L756.485,48.492L764.585,53.91L764.361,60.345L764.364,71.347L761.013,79.288L757.61,85.275L753.449,94.264L751.486,103.102L748.659,111.667L745.211,115.838L744.151,119.184L747.551,120.708L754.148,118.634L763.799,113.586L773.83,107.83L780.996,101.869L785.491,99.151L791.317,99.578L793.359,106.188L795.817,109.409L798.386,117.679L799.055,127.499L800.649,134.913L806.865,139.239L810.174,148.581L810.947,153.69L812.941,156.726L816.093,157.524L818.381,153.603L823.888,154.606L827.93,154.251L826.793,151.363L822.755,149.932L822.566,145.626L815.087,144.803L812.764,140.588L811.008,135.328L809.293,133.175L810.708,127.523L815.62,131.101L819.185,133.534L822.748,132.809L821.371,128.566L817.525,127.62L813.219,123.922L810.596,119.079L806.735,117.7L804.863,114.215L802.053,112.703L800.142,111.599L799.03,108.044L801.328,106.559L801.58,103.771L798.959,99.323L806.023,99.323L809.571,104.358L812.833,111.279L816.798,115.115L821.645,119.44L821.415,125.342L823.098,127.518L825.721,124.653L827.785,123.85L829.86,127.989L832.408,131.526L834.164,135.752L837.904,135.848L836.91,132.097L835.085,129.075L833.7,125.168L836.695,125.556L839.273,128.969L842.485,130.966L843.718,127.109L844.022,123.869L847.405,120.708L851.446,116.774L856.94,113.855L859.57,111.058L856.177,110.268L852.947,112.357L846.032,111.347L838.476,109.224L837.105,113.183L833.301,112.578L831.974,108.433L827.323,102.981L827.079,98.828L822.44,103.195L824.081,109.13L826.601,114.711L820.557,114.302L817.262,111.42L814.911,103.853L812.383,98.158L819.569,91.323L822.63,89.053L817.361,85.475L816.261,78.477L819.632,74.243L824.447,67.333L821.936,62.927L817.013,55.831L820.568,52.089L822.932,49.683L825.637,49.419L828.162,47.857L831.503,51.139L835.071,56.166L840.129,64.122L836.743,68.867L833.065,73.595L831.558,82.941L836.514,85.949L841.123,82.527L845.196,80.862L853.904,81.024L855.836,75.442L853.003,68.84L850.666,64.262L854.545,60.561L855.636,49.794L861.239,49.993L869.792,53.286L871.621,51.209L869.373,48.399L868.339,39.842L870.971,38.25L870.017,33.496L870.542,27.495L871.599,24.436L868.3,22.092L864.982,17.182L860.143,8.083L850.882,7.005L839.802,5.146L833.548,8.971L831.58,13.049L826.959,15.72L823.959,14.505L813.58,5.146L807.953,0.708L937.399,0.708Z" class="green"/>
<path d="M684.494,73.554L692.114,72.787L698.357,70.239L698.161,65.257L700.718,55.93L694.386,47.592L688.523,46.532L682.028,53.247L675.736,61.227L673.07,65.132L670.195,75.516L663.376,75.516L657.434,80.708L656.224,83.883L663.053,90.04L671.669,90.365L675.736,86.808L675.736,75.516L679.561,72.932L684.494,73.554Z" class="green"/>
<path d="M803.049,62.927L811.87,61.227L814.867,62.927L815.607,68.298L813.786,72.976L809.753,75.375L806.182,75.516L803.189,69.594L803.049,62.927Z" class="green"/>
<path d="M869.41,6.974L872.63,2.702L875.945,7.357L881.341,8.337L882.651,13.049L878.827,14.147L878.609,20.906L872.222,20.906L872.654,13.049L869.41,6.974Z" class="beige"/>
<path d="M1012.38,2.702L1015.24,5.146L1018.74,8.901L1022.2,9.57L1022.13,13.852L1019.27,17.66L1014.13,23.184L1010.44,23.395L1008.09,20.811L1004.28,15.328L1005.73,8.851L1008.94,5.146L1012.38,2.702Z" class="beige"/>
<path d="M998.285,28.763L993.061,28.314L988.727,23.395L986.963,17.21L989.255,13.049L993.807,14.387L995.131,18.811L998.496,21.79L998.285,28.763Z" class="beige"/>
<path d="M1300.16,56.881L1304.1,58.045L1299.75,48.451L1291.59,35.962L1284.27,41.468L1297.48,60.792L1300.16,56.881Z" class="beige"/>
<path d="M1193.3,0.708L1192.4,5.146L1192.14,10.796L1197.9,13.423L1200.47,20.899L1200.63,33.703L1202.17,40.966L1207.01,48.263L1213.22,50.518L1225.9,49.485L1231.14,42.183L1230.37,34.848L1233.9,29.986L1237.39,28.504L1239.84,32.012L1239.14,38.25L1240.75,40.484L1245.69,36.323L1248.52,38.25L1250.18,34.64L1253.83,30.385L1258.05,30.908L1261.98,32.357L1265.06,38.25L1266.5,46.185L1276.93,55.507L1287.96,64.839L1292.01,64.875L1295.32,62.927L1296.28,67.88L1298.72,67.01L1297.97,62.927L1296.19,56.496L1293.79,50.599L1284.2,41.447L1291.27,36.057L1294.2,41.86L1298.91,48.016L1301.57,53.238L1304.33,58.053L1308.51,58.45L1312.47,50.853L1315.23,49.295L1315.73,44.961L1318.04,42.536L1322.62,46.945L1318.87,58.576L1318.98,68.678L1318.01,73.328L1314.44,69.449L1312.53,71.928L1314.96,76.819L1315.19,87.791L1312.64,90.918L1304.39,90.708L1296.11,94.507L1295.97,101.044L1305.8,113.488L1310.98,113.488L1315.94,115.381L1316.81,108.682L1322.41,105.375L1327.81,98.391L1328.54,84.837L1335.94,72.583L1339.42,62.927L1342.79,47.551L1344.19,33.881L1347.6,22.727L1357.22,20.491L1367.26,24.115L1368.86,30.701L1379.99,33.005L1380.61,35.822L1389.36,40.494L1388.67,45.287L1378.45,40.682L1365.01,36.71L1359.1,42.819L1352.12,49.419L1347.98,53.855L1345.13,60.719L1344.41,65.387L1349.92,72.22L1359.02,77.376L1368.38,81.032L1383.26,83.306L1399.41,80.228L1399.96,73.143L1401.54,66.628L1404.49,62.927L1408.68,69.333L1418.18,62.927L1416.54,57.237L1415.99,54.327L1420.35,50.505L1426.54,45.699L1427.83,41.8L1428.12,34.673L1426.52,28.775L1427.48,23.562L1430.84,18.562L1434.98,12.523L1437.17,5.146L1432.06,0.708L1193.3,0.708Z" class="green"/>
<path d="M1340.59,71.818L1340.21,77.832L1334.04,85.33L1331.56,98.22L1326.45,105.942L1327.26,111.731L1320.53,115.381L1314.66,128.684L1314.18,139.254L1314.66,143.858L1323.49,145.894L1329,146.828L1339.21,155.822L1354.9,158.129L1364.04,153.541L1377.11,150.605L1383.78,151.978L1387.23,150.251L1396.53,150.979L1398.15,153.212L1401.99,150.667L1402,147.505L1399.08,144.002L1389.34,142.123L1390.82,135.452L1395.34,133.242L1391.53,124.318L1389.17,120.708L1391.43,115.381L1395.95,120.708L1398.53,123.295L1403.28,124.141L1408.34,115.782L1408.62,110.813L1413.63,110.465L1414.64,106.217L1404.15,95.294L1396.83,95.07L1394.58,91.963L1383.77,95.566L1373.93,92.53L1367.29,93.855L1359.28,87.495L1354.12,81.518L1347.33,79.425L1340.59,71.818Z" class="green"/>
<path d="M1375.54,18.202L1375.32,22.315L1384.27,21.634L1388.81,23.372L1397.3,22.88L1404.89,24.908L1411.83,24.314L1420.76,23.017L1427.74,15.38L1425.61,12.15L1408.23,9.902L1406.53,11.753L1403.81,11.015L1403.04,8.876L1396.2,7.871L1387.72,6.813L1385.88,14.787L1383.56,16.878L1375.54,18.202Z" class="beige"/>
<path d="M1155,127.796L1151.62,127.363L1145.5,124.206L1152.43,118.159L1157.09,123.268L1155,127.796Z" class="beige"/>
<path d="M1227.59,142.409L1224.74,147.82L1232.05,154.29L1230.28,157.076L1230.68,162.561L1236.84,162.836L1243.48,156.966L1244.29,150.605L1237.11,146.841L1236.19,144.207L1227.59,142.409Z" class="beige"/>
<ellipse cx="1171.72" cy="157.291" rx="2.263" ry="2.217" class="beige"/>
<ellipse cx="1160.07" cy="128.856" rx="1.264" ry="1.06" class="beige"/>
<path d="M1060.01,118.853L1070.34,123.751L1077.28,122.79L1084.66,125.981L1090.24,146.485L1090,153.733L1083.33,160.201L1078.04,160.763L1073.63,160.708L1070.69,160.763L1055.58,160.763L1051.95,159.613L1045.7,154.116L1041.64,159.699L1038.11,152.853L1033.43,150.457L1029.61,142.608L1027.26,145.027L1022.71,144.879L1022.86,138.913L1018.75,138.757L1016.57,144.031L1013.87,139.347L1014.47,128.963L1015.05,119.731L1021.64,113.488L1026.75,113.672L1032.46,123.332L1033.7,128.272L1039.63,129.8L1044.28,124.763L1047.53,119.182L1060.01,118.853Z" class="beige"/>
<path d="M1016.28,120.708L1022.08,116.435L1025.87,115.687L1031.46,123.24L1031.54,127.693L1031.7,134.293L1037.44,135.252L1039.08,129.928L1046.14,123.017L1055.25,121.258L1060.78,121.633L1068.49,124.795L1073.18,126.874L1078.68,125.247L1084.77,125.803L1089.63,133.178L1090.32,144.611L1087.87,152.058L1082.33,158.61L1074.96,158.53L1072.31,160.763L1067.32,160.708L1058.97,160.708L1052.3,156.73L1045.36,147.502L1037.96,150.794L1034.7,149.79L1034.13,143.649L1029.64,140.71L1023.39,143.738L1022.47,139.304L1023.11,135.405L1019.46,134.041L1017.87,142.01L1014.59,136.654L1017.35,132.021L1016.28,120.708Z" class="green"/>
<path d="M1069.66,102.351L1071.66,103.134L1076.6,105.174L1079.62,107.666L1083.37,107.182L1086.07,105.212L1089.67,104.65L1093.06,102.247L1095.08,96.633L1096.4,91.663L1098.9,91.282L1102.36,91.957L1107.11,90.431L1108.8,85.076L1106.13,79.813L1105.21,74.686L1101.86,75.977L1099.6,73.69L1096.95,75.919L1094.51,77.638L1091.34,76.675L1091.08,78.633L1093.89,80.777L1093.96,83.799L1086.04,86.107L1079.9,85.85L1074.6,89.942L1070.55,93.74L1067.9,97.761L1069.66,102.351Z" class="beige"/>
<ellipse cx="1102.65" cy="69.417" rx="1.615" ry="2.416" class="beige"/>
<ellipse cx="1111.03" cy="113.875" rx="2.227" ry="2.189" class="beige"/>
<path d="M1076.04,5.146L1072.3,6.405L1070.99,5.146L1070.17,2.196L1071.74,0.877L1073.38,2.071L1076.34,2.263L1076.04,5.146Z" class="beige"/>
<path d="M1165.11,30.712L1166.19,34.073L1168.81,38.25L1169.53,43.293L1173.24,46.447L1173.61,48.507L1178.69,49.533L1180.79,51.421L1186.86,50.545L1188.52,47.501L1187.82,40.477L1185.34,32.036L1184.4,28.894L1186.28,24.434L1185.26,20.984L1183.38,18.829L1180.43,15.87L1178.96,14.254L1176.68,14.291L1173.45,17.096L1171.17,18.315L1170.22,22.584L1169.45,26.535L1166.02,27.326L1165.11,30.712Z" class="beige"/>
<ellipse cx="1189.48" cy="22.732" rx="0.96" ry="1.039" class="beige"/>
<path d="M1099.15,21.762L1105.36,21.181L1105.87,19.204L1109.26,19.367L1110.96,16.198L1114.6,16.606L1115.16,20.338L1122.77,16.632L1128.2,16.16L1129.83,17.069L1132.89,16.423L1135.96,14.43L1136.36,16.949L1143.19,15.361L1144.67,18.261L1148.32,18.015L1149.47,14.43L1153.51,12.646L1156.35,14.43L1155,18.798L1153.05,31.642L1151.2,32.347L1151.85,41.114L1149.47,47.89L1135.92,52.189L1126.57,58.651L1124.6,64.399L1122.34,65.287L1118.42,62.927L1110.44,64.692L1108.4,62.927L1106.27,60.663L1102.24,58.277L1094.22,56.482L1083.25,58.705L1077.67,60.833L1074.27,66.188L1075.42,73.933L1071.14,75.733L1067.87,76.64L1059.52,73.606L1053.19,71.831L1047.88,71.428L1046.83,79.41L1057.74,91.25L1056.82,95.366L1051.91,95.018L1045.97,91.027L1035.15,95.877L1043,112.176L1041.24,115.198L1040.1,118.408L1039.84,124.392L1036.35,124.661L1034.52,120.708L1025.75,106.738L1023.27,104.846L1018.05,104.87L1017.38,95.717L1010.71,95.629L988.628,95.32L985.129,100.154L983.378,98.831L981.563,93.848L978.248,87.812L976.414,79.919L974.104,71.849L972.131,62.927L976.099,57.48L976.84,40.976L982.865,39.804L990.677,41.02L993.279,49.709L996.704,50.12L1008.11,40.789L1015.15,35.426L1049.89,14.43L1053.33,17.288L1056.67,23.389L1061.79,31.642L1068.11,31.642L1073.64,28.362L1079.7,26.798L1090.46,24.789L1091.95,21.805L1099.15,21.762Z" class="beige"/>
<path d="M1139.99,38.812L1141.69,38.041L1141.93,35.593L1144.83,36.62L1144.98,39.21L1148.32,37.514L1148.22,31.642L1141.31,33.457L1140.22,35.273L1139.99,38.812Z" class="green"/>
<path d="M993.691,52.974L999.45,52.907L1001.03,49.832L1006.69,49.053L1007.12,45.211L1014.28,38.25L1014.81,35.706L1020.17,30.295L1020.73,27.636L1025.58,22.866L1027.82,16.466L1030.24,10.811L1034.17,10.94L1040.68,5.146L1043.56,6.168L1049.72,14.234L1053.41,20.971L1057.16,23.334L1058.82,30.667L1061.67,31.763L1065.97,34.084L1070.81,32.133L1077.52,29.32L1084.77,27.946L1090.64,25.933L1097.15,23.817L1098.59,21.925L1099.07,28.314L1096.72,30.347L1097.94,33.076L1102.54,33.268L1104.58,36.189L1099.25,38.25L1099.31,42.46L1097.23,43.976L1098.13,45.988L1103.15,42.651L1104.68,38.25L1107.4,38.25L1108.7,33.017L1109.06,27.028L1108.29,22.492L1115.98,20.483L1116.53,17.996L1120.53,18.928L1128.43,17.852L1128.23,21.877L1123.79,21.306L1122.04,24.703L1123.68,27.179L1125.91,24.678L1127.8,31.33L1131.01,36.589L1132.06,30.9L1136.94,36.164L1136.31,41.104L1139.85,42.854L1145.5,42.851L1145.5,40.603L1147.8,39.818L1149.47,43.856L1144.03,45.604L1147.67,47.181L1145.5,52.799L1141.59,53.82L1141.25,57.178L1136.32,58.385L1126.22,58.579L1122.81,64.82L1118.98,62.414L1114.05,63.796L1109.48,61.323L1106.21,60.705L1105.82,57.475L1097.11,55.294L1086.98,54.896L1077.99,57.467L1073.48,63.312L1074.16,68.906L1075.35,74.17L1072.28,72.077L1069.57,73.525L1065.72,71.819L1056.59,70.451L1048.32,70.658L1046.09,75.09L1046.6,79.435L1053.54,78.818L1057.27,80.6L1058.56,91.307L1053.37,91.894L1046.36,88.22L1041.78,90.107L1039.79,96.089L1040.47,103.562L1042.55,107.037L1043.62,111.577L1040.03,114.276L1038.86,120.708L1031.38,115.385L1029.66,113.153L1030.35,107.889L1032.7,103.61L1029.68,100.191L1024.83,99.586L1021.35,101.147L1020.91,96.576L1024.76,92.223L1023.22,88.743L1015.95,89.598L1010.44,91.161L1010.68,95.875L1008.25,99.696L1004.51,101.26L1000.22,100.98L988.219,95.289L988.001,97.387L990.874,100.07L987.378,101.261L984.754,100.611L985.5,97.257L981.764,90.97L980.246,85.221L977.98,79.795L977.448,74.114L974.104,64.608L975.356,60.321L977.628,57.959L977.467,47.299L978.943,42.506L988.028,42.783L991.357,48.768L993.691,52.974Z" class="green"/>
<path d="M1144.44,19.282L1146.71,24.53L1141.68,25.818L1135.1,26.538L1134.34,28.119L1140.84,29.011L1139.06,31.2L1141.35,32.347L1145.5,31.322L1149.47,29.067L1149.47,26.685L1153.77,26.216L1154.7,22.882L1155,20.452L1153.37,20.133L1154.18,16.442L1152.35,14.43L1151.42,18.833L1148.08,17.839L1144.44,19.282Z" class="green"/>
<path d="M1056.07,0.708L1059.57,2.702L1062.68,0.708L1056.07,0.708Z" class="green"/>
<path d="M673.77,142.607L666.883,145.353L662.786,148.941L658.617,151.61L657.136,153.574L666.129,155.798L674.763,155.798L679.094,153.1L673.77,142.607Z" class="green"/>
<path d="M642.655,158.253L642.183,153.219L640.101,151.55L637.546,153.322L636.803,155.798L638.639,155.798L639.164,158.253L642.655,158.253Z" class="green"/>
<path d="M664.35,141.5L663.11,143.771L661.236,143.084L659.621,141.443L656.446,141.599L655.037,144.078L654.665,146.879L650.004,149.025L643.3,148.518L638.266,145.234L634.638,140.775L632.863,136.059L630.829,133.869L633.677,129.503L636.375,126.925L635.793,123.447L632.243,124.002L626.908,124.371L622.358,122.24L619.362,121.582L620.014,125.818L617.449,126.834L615.219,125.836L612.801,128.212L607.75,130.147L604.923,130.87L599.956,136.808L595.159,141.945L598.226,144.23L596.776,146.927L598.541,151.348L601.182,156.604L601.615,160.668L585.668,160.708L590.418,150.506L591.685,146.214L587.487,144.768L583.521,144.777L580.759,144.148L580.544,148.396L576.45,148.813L572.136,150.002L569.793,148.114L568.443,143.824L567.749,138.799L565.858,138.935L564.351,141.958L560.411,142.339L560.842,145.14L558.09,147.033L555.795,151.605L556.738,157.194L559.304,159.13L557.625,160.708L535.288,160.708L539.43,156.487L548.851,151.517L553.271,147.994L548.589,145.369L540.981,145.369L532.49,149.281L527.778,153.728L526.96,160.708L431.3,160.558L429.698,158.353L427.12,158.41L427.849,160.763L404.051,160.708L402.257,159.57L398.382,159.512L397.491,158.048L401.983,157.309L394.735,155.312L391.836,152.681L388.67,150.562L381.511,149.861L377.915,147.693L378.316,153.431L383.528,154.73L390.407,155.987L393.178,158.25L394.862,160.708L325.364,160.708L325.01,157.268L321.709,155.258L322.515,152.13L325.726,151.328L331.614,151.691L335.426,150.729L336.764,147.679L342.753,146.739L341.925,148.396L339.203,148.841L338.453,150.309L342.336,150.683L347.995,150.335L354.189,151.89L359.362,149.724L366.002,139.659L371.119,135.154L374.368,131.231L377.265,122.04L382.181,116.451L386.821,117.417L393.599,117.592L399.549,115.643L403.458,115.903L406.52,110.418L407.273,107.214L403.838,106.845L402.502,102.92L410.237,103.086L416.075,100.345L420.339,100.975L424.543,98.652L425.282,96.138L430.638,95.639L436.878,97.271L438.618,100.473L439.592,105.14L440.589,108.861L442.854,107.761L447.294,106.104L451.048,100.916L457.04,96.207L461.043,97.033L465.985,96.234L469.052,101.465L470.058,105.673L475.026,107.948L478.456,107.851L481.259,103.621L485.414,101.374L488.962,103.458L494.301,102.852L496.744,99.765L497.216,97.228L503.997,95.502L507.082,93.873L510.947,93.389L513.521,96.55L519.656,98.799L524.879,101.815L528.628,106.605L531.085,110.658L535.491,114.945L537.675,117.6L548.786,118.874L552.91,117.01L556.862,111.92L565.977,108.19L576.967,105.567L590.588,102.088L594.515,99.22L598.51,98.898L599.957,96.23L591.666,94.879L588.915,94.039L587.799,90.736L583.955,87.475L585.042,83.743L592.117,80.066L596.957,78.446L600.986,74.943L609.142,69.423L612.687,68.908L614.127,70.996L619.237,70.607L623.787,67.881L628.766,63.191L633.162,64.191L635.983,62.62L639.881,64.137L645.51,66.663L646.089,70.651L649.331,70.841L652.073,73.18L651.272,74.765L650.21,78.274L652.667,80.617L651.949,86.204L646.464,87.84L645.47,84.34L640.671,84.399L637.113,86.235L630.281,85.541L622.41,84.373L616.421,85.884L612.732,89.393L612.64,94.489L618.75,93.252L621.405,93.603L622.875,102.399L624.071,109.004L622.265,115.946L624.709,115.94L626.443,110.971L628.955,109.485L630.932,96.788L643.51,96.404L647.844,97.719L648.303,90.022L651.525,89.866L654.035,92.579L659.509,93.331L663.634,101.171L667.461,105.166L668.011,115.298L675.611,114.265L676.648,117.226L676.874,122.549L675.001,122.929L674.127,130.651L671.716,131.234L665.891,129.032L666.271,126.371L661.057,126.209L662.246,122.764L656.44,126.597L655.285,130.832L650.138,128.53L649.21,124.512L647.25,123.335L646.943,119.556L639.52,117.929L639.304,122.414L644.458,121.794L645.867,126.577L645.675,132.185L652.873,133.438L653.326,137.996L657.758,138.441L659.48,139.701L662.622,136.023L663.095,139.437L664.35,141.5Z" class="green"/>
<path d="M368.81,133.35L370.415,125.608L369.922,120.708L366.488,117.896L361.514,115.942L356.768,115.226L352.658,115.504L352.212,117.745L350.866,120.708L348.673,117.554L348.169,111.692L352.072,111.692L355.276,112.485L358.086,111.692L362.61,105.206L360.415,101.132L359.77,96.541L352.285,91.922L345.423,88.799L340.731,86.381L337.397,86.58L328.76,85.026L321.709,84.809L312.252,86.288L305.902,86.896L301.633,89.554L300.284,92.474L295.524,95.462L294.898,98.909L289.843,99.441L288.524,102.752L284.628,103.203L283.577,104.427L285.141,109.638L289.947,113.526L295.401,116.464L300.286,120.708L305.273,120.708L309.506,124.25L313.556,127.772L315.597,128.159L313.946,129.998L311.404,133.334L316.361,136.738L319.966,132.697L327.073,129.998L329.803,132.163L330.436,138.099L328.327,138.327L328.577,142.375L323.642,143.526L323.383,145.558L329.024,147.359L330.211,145.121L336.281,144.744L340.126,143.632L343.488,140.208L352.252,138.971L357.939,139.514L363.116,135.375L368.81,133.35Z" class="green"/>
<path d="M343.681,136.781L342.686,133.154L339.934,127.081L346.087,127.527L348.763,125.817L351.036,125.036L351.965,127.37L355.803,127.606L360.087,126.566L355.272,128.963L355.049,131.663L352.601,131.372L348.231,128.642L343.588,131.003L344.85,132.937L345.169,136.476L343.681,136.781Z" class="beige"/>
<path d="M266.367,160.708L263.412,155.798L260.986,155.798L258.988,157.249L251.626,157.22L250.092,160.708L266.367,160.708Z" class="green"/>
<path d="M925.031,0.708L921.976,8.269L903.899,58.352L907.662,133.73L903.027,146.575L886.604,160.708" class="road"/>
<path d="M918.673,0.708L921.976,8.269" class="road"/>
</svg>
