<?xml version="1.0" encoding="UTF-8" standalone="no"?>
<!DOCTYPE svg PUBLIC "-//W3C//DTD SVG 1.1//EN" "http://www.w3.org/Graphics/SVG/1.1/DTD/svg11.dtd">
<svg width="100%" height="100%" viewBox="0 0 64 64" version="1.1" xmlns="http://www.w3.org/2000/svg" xmlns:xlink="http://www.w3.org/1999/xlink" xml:space="preserve" xmlns:serif="http://www.serif.com/" style="fill-rule:evenodd;clip-rule:evenodd;stroke-linejoin:round;stroke-miterlimit:2;"><path d="M32,0.992c9.775,0 17.719,7.855 17.719,17.571c-0,13.172 -17.719,32.633 -17.719,32.633c-0,0 -17.72,-19.461 -17.72,-32.633c0,-9.716 7.945,-17.571 17.72,-17.571m-0,11.812c-3.24,-0 -5.906,2.667 -5.906,5.908c0,3.239 2.666,5.906 5.906,5.906c3.24,-0 5.907,-2.667 5.907,-5.906c-0,-3.241 -2.667,-5.908 -5.907,-5.908m23.625,38.392c0,6.527 -10.572,11.812 -23.625,11.812c-13.052,-0 -23.625,-5.285 -23.625,-11.812c-0,-3.81 3.603,-7.206 9.184,-9.361l1.89,2.686c-3.19,1.33 -5.169,3.161 -5.169,5.198c0,4.075 7.945,7.383 17.72,7.383c9.775,-0 17.719,-3.308 17.719,-7.383c-0,-2.037 -1.978,-3.868 -5.167,-5.198l1.89,-2.686c5.581,2.155 9.183,5.551 9.183,9.361Z" style="fill:#b71c1c;fill-rule:nonzero;"/></svg>