<?xml version="1.0" encoding="UTF-8" standalone="no"?>
<svg width="100%" height="100%" viewBox="0 0 150 80" version="1.1" xmlns="http://www.w3.org/2000/svg"><style>.blue{fill:#0277BD}.red{fill:#B71C1C}.text{fill:#242424}@media (prefers-color-scheme: dark){.blue{fill:#3173B7}.red{fill:#912424}.text{fill:#7C7C7C}}</style><path d="M86.952,7.048c10.116,-0 18.337,8.129 18.337,18.184c0,13.632 -18.337,33.772 -18.337,33.772c0,-0 -18.338,-20.14 -18.338,-33.772c0,-10.055 8.222,-18.184 18.338,-18.184m0,12.224c-3.353,0 -6.112,2.76 -6.112,6.114c0,3.352 2.759,6.112 6.112,6.112c3.353,-0 6.113,-2.76 6.113,-6.112c-0,-3.354 -2.76,-6.114 -6.113,-6.114m24.45,39.732c-0,6.755 -10.941,12.224 -24.45,12.224c-13.508,0 -24.45,-5.469 -24.45,-12.224c0,-3.943 3.729,-7.458 9.505,-9.688l1.956,2.78c-3.301,1.376 -5.349,3.271 -5.349,5.379c0,4.218 8.222,7.641 18.338,7.641c10.116,0 18.337,-3.423 18.337,-7.641c0,-2.108 -2.047,-4.003 -5.347,-5.379l1.956,-2.78c5.776,2.23 9.504,5.745 9.504,9.688Z" class="red"/><path d="M2.755,40l0,-17.305c0,-3.034 0.908,-5.462 2.725,-7.285c1.816,-1.823 4.235,-2.734 7.256,-2.734c3.007,-0 5.309,0.885 6.904,2.656c1.595,1.771 2.392,4.316 2.392,7.637l0,17.031l-7.929,0l-0,-17.031c-0,-1.628 -0.58,-2.442 -1.739,-2.442c-1.119,0 -1.679,0.814 -1.679,2.442l-0,17.031l-7.93,0Z" class="blue"/><path d="M45.587,13.34l0,17.285c0,3.047 -0.908,5.482 -2.725,7.305c-1.816,1.823 -4.235,2.734 -7.255,2.734c-3.008,0 -5.31,-0.885 -6.905,-2.656c-1.595,-1.771 -2.392,-4.317 -2.392,-7.637l-0,-17.031l7.929,-0l0,17.012c0,1.627 0.58,2.441 1.739,2.441c1.12,-0 1.679,-0.814 1.679,-2.441l0,-17.012l7.93,-0Z" class="blue"/><path d="M58.341,20.508l-0,19.492l-7.93,0l0,-26.66l10.176,-0c3.099,-0 5.501,0.768 7.207,2.305c1.901,1.718 2.852,3.899 2.852,6.542c-0,2.696 -1.179,4.968 -3.535,6.817l4.57,10.996l-8.32,0l-3.848,-8.594l-0,-6.855l0.625,-0c1.667,-0 2.5,-0.716 2.5,-2.149c-0,-1.263 -0.964,-1.894 -2.891,-1.894l-1.406,-0Z" class="text"/><path d="M113.146,30.781l-0,-6.992c1.601,0 2.402,-0.612 2.402,-1.836c0,-1.12 -0.612,-1.68 -1.836,-1.68c-1.237,0 -1.855,0.769 -1.855,2.305l-0,17.422l-7.93,0l-0,-16.602c-0,-1.718 0.172,-3.128 0.518,-4.228c0.345,-1.1 0.934,-2.126 1.767,-3.076c0.938,-1.055 2.109,-1.888 3.516,-2.5c1.406,-0.612 2.858,-0.918 4.355,-0.918c2.709,-0 4.984,0.911 6.826,2.734c1.843,1.823 2.764,4.082 2.764,6.777c0,2.618 -0.827,4.74 -2.48,6.368c-1.511,1.497 -3.79,2.246 -6.836,2.246l-1.211,-0.02Z" class="text"/><path d="M136.622,26.621l0,7.031l-2.285,0l0,6.348l-7.93,0l0,-16.953c0,-3.281 0.896,-5.83 2.686,-7.647c1.79,-1.816 4.307,-2.724 7.549,-2.724c3.125,-0 5.436,0.823 6.933,2.47c1.498,1.648 2.246,4.19 2.246,7.627l0,17.227l-7.929,0l-0,-16.699c-0,-1.042 -0.124,-1.765 -0.371,-2.168c-0.248,-0.404 -0.69,-0.606 -1.328,-0.606c-1.237,0 -1.856,0.925 -1.856,2.774l0,3.32l2.285,0Z" class="text"/></svg>